<?xml version="1.0" encoding="UTF-8" standalone="no"?>
<!-- Created with Inkscape (http://www.inkscape.org/) -->

<svg
   version="1.1"
   id="svg2"
   xml:space="preserve"
   width="1193.0801"
   height="371.86719"
   viewBox="0 0 1193.0801 371.86719"
   sodipodi:docname="9cb261f7cd45f33ca37c87fa6590aac1.ai"
   xmlns:inkscape="http://www.inkscape.org/namespaces/inkscape"
   xmlns:sodipodi="http://sodipodi.sourceforge.net/DTD/sodipodi-0.dtd"
   xmlns="http://www.w3.org/2000/svg"
   xmlns:svg="http://www.w3.org/2000/svg"><defs
     id="defs6"><clipPath
       clipPathUnits="userSpaceOnUse"
       id="clipPath16"><path
         d="M 0,960 H 960 V 0 H 0 Z"
         id="path14" /></clipPath></defs><sodipodi:namedview
     id="namedview4"
     pagecolor="#ffffff"
     bordercolor="#666666"
     borderopacity="1.0"
     inkscape:pageshadow="2"
     inkscape:pageopacity="0.0"
     inkscape:pagecheckerboard="0" /><g
     id="g8"
     inkscape:groupmode="layer"
     inkscape:label="9cb261f7cd45f33ca37c87fa6590aac1"
     transform="matrix(1.3333333,0,0,-1.3333333,-49.573199,812.34691)"><g
       id="g10"><g
         id="g12"
         clip-path="url(#clipPath16)"><g
           id="g18"
           transform="translate(37.5701,609.25)"><path
             d="m 0,0 c 9.44,-0.01 18.89,0 28.33,-0.01 -0.03,-29.75 0,-59.51 -0.02,-89.27 -0.18,-1.68 0.48,-3.24 1.74,-4.35 18.8,-19.06 37.37,-38.36 56.13,-57.46 17.47,18.22 35.16,36.23 52.75,54.34 1.89,2.24 5.24,4.07 4.79,7.45 -0.14,29.76 -0.08,59.53 -0.19,89.29 9.22,0.01 18.43,0 27.65,0.01 0,-34.14 -0.06,-68.27 0.03,-102.41 -23.24,-23.34 -46.54,-46.62 -69.8,-69.94 -10.73,0.06 -21.46,-0.14 -32.18,0.14 -23.1,23.24 -46.19,46.5 -69.26,69.76 C 0.05,-68.3 -0.02,-34.15 0,0"
             style="fill:#f36f2e;fill-opacity:1;fill-rule:nonzero;stroke:none"
             id="path20" /></g><g
           id="g22"
           transform="translate(216.73,609.2402)"><path
             d="m 0,0 c 41.11,0.02 82.21,-0.02 123.32,0.02 2.77,-0.02 5.74,-0.44 7.93,-2.29 3.8,-3.07 4.98,-8.24 5.02,-12.92 0.1,-12.12 -0.38,-24.24 0.16,-36.36 -9.57,1.84 -19.18,3.43 -28.76,5.23 0.03,6 0.04,11.99 0.02,17.98 C 71.79,-28.49 35.9,-28.37 0,-28.4 Z"
             style="fill:#f36f2e;fill-opacity:1;fill-rule:nonzero;stroke:none"
             id="path24" /></g><g
           id="g26"
           transform="translate(360.8101,609.25)"><path
             d="m 0,0 c 9.36,-0.01 18.72,0 28.08,0 -0.05,-48.55 0,-97.1 -0.02,-145.64 h 115.01 c -0.11,48.54 -0.02,97.09 -0.05,145.63 9.42,0.01 18.84,0.01 28.26,0 0.02,-53.73 -0.01,-107.46 0.01,-161.19 -0.05,-2.67 -0.28,-5.62 -2.2,-7.69 -2.62,-3.23 -7.1,-3.4 -10.92,-3.47 -48.97,0.02 -97.95,-0.07 -146.93,-0.15 -3.5,0 -7.38,0.85 -9.63,3.76 -1.53,1.81 -1.55,4.31 -1.62,6.54 C 0.03,-108.14 0,-54.07 0,0"
             style="fill:#f36f2e;fill-opacity:1;fill-rule:nonzero;stroke:none"
             id="path28" /></g><g
           id="g30"
           transform="translate(270.8398,536.1201)"><path
             d="m 0,0 c 27.31,0 54.62,0.01 81.93,0 0.01,-29.08 -0.01,-58.16 0.01,-87.24 0.1,-3.61 -1.21,-7.41 -4.1,-9.72 -2.4,-2.03 -5.69,-2.37 -8.7,-2.43 -49.01,0.04 -98.02,0 -147.02,0.02 -4.73,-0.03 -10.81,1.99 -11.64,7.32 -0.88,7.84 0,15.74 -0.21,23.6 9.22,9.14 18.4,18.3 27.64,27.41 -0.03,-10.49 0,-20.99 -0.03,-31.48 38.59,0 77.17,0.04 115.76,-0.02 -0.03,14.84 -0.01,29.68 -0.01,44.51 C 35.76,-27.96 17.88,-28.02 0.01,-28 -0.03,-18.66 -0.01,-9.33 0,0"
             style="fill:#f36f2e;fill-opacity:1;fill-rule:nonzero;stroke:none"
             id="path32" /></g><g
           id="g34"
           transform="translate(424.25,389.7598)"><path
             d="m 0,0 c 7.66,5.99 18.55,6.32 27.37,2.86 -0.56,-1.65 -1.09,-3.33 -1.63,-5 -6.82,2.48 -15.04,3 -21.18,-1.44 -6.26,-4.49 -7.9,-13.05 -6.67,-20.26 0.75,-5.38 3.82,-10.6 8.81,-13.03 4.93,-2.55 10.68,-1.84 15.93,-0.92 0.04,4.89 0.04,9.77 0.05,14.65 -3.09,0 -6.18,-0.01 -9.26,-0.02 0.01,1.71 0.03,3.4 0.05,5.09 5.01,-0.03 10.02,-0.03 15.03,-0.01 -0.02,-7.79 0.02,-15.57 -0.03,-23.37 C 19.9,-44.21 9.86,-45.52 1.72,-40.84 -5.32,-36.9 -8.58,-28.55 -8.71,-20.8 -9.09,-13.06 -6.26,-4.86 0,0"
             style="fill:#88898b;fill-opacity:1;fill-rule:nonzero;stroke:none"
             id="path36" /></g><g
           id="g38"
           transform="translate(37.1799,394.2402)"><path
             d="m 0,0 c 2.18,-0.02 4.36,-0.03 6.54,-0.06 3.92,-13.71 8.48,-27.24 11.83,-41.1 3.57,13.9 8.5,27.4 12.75,41.1 2.16,0.03 4.31,0.05 6.46,0.07 -5.41,-15.95 -10.8,-31.92 -16.23,-47.87 -2.17,0.01 -4.35,0.01 -6.52,0.01 C 9.85,-31.91 4.99,-15.93 0,0"
             style="fill:#88898b;fill-opacity:1;fill-rule:nonzero;stroke:none"
             id="path40" /></g><g
           id="g42"
           transform="translate(79.3,393.7402)"><path
             d="M 0,0 C 2.63,1.8 6.1,-0.8 5.66,-3.79 5.65,-6.58 2.06,-8.42 -0.18,-6.74 -2.55,-5.23 -2.34,-1.42 0,0"
             style="fill:#88898b;fill-opacity:1;fill-rule:nonzero;stroke:none"
             id="path44" /></g><g
           id="g46"
           transform="translate(657.3301,394.1699)"><path
             d="m 0,0 c 1.99,0.03 3.99,0.06 6,0.07 0.01,-9.08 -0.01,-18.16 -0.01,-27.24 0.05,-4.52 0.41,-9.53 3.5,-13.12 3.71,-4.4 11.41,-4.04 14.87,0.49 2.79,3.55 3.08,8.3 3.08,12.63 -0.03,9.08 -0.03,18.15 -0.02,27.23 2,0 4.01,0 6.03,-0.02 C 33.4,-9.35 33.46,-18.75 33.44,-28.14 33.4,-33.46 32.45,-39.16 28.87,-43.31 24.1,-48.91 15.46,-49.74 8.96,-47.03 2.59,-44.16 0.19,-36.7 0.08,-30.21 -0.07,-20.14 0.12,-10.07 0,0"
             style="fill:#88898b;fill-opacity:1;fill-rule:nonzero;stroke:none"
             id="path48" /></g><g
           id="g50"
           transform="translate(739.1201,394.0098)"><path
             d="M 0,0 C 2.64,1.18 5.73,-1.12 5.4,-3.99 5.53,-7.34 0.6,-9.02 -1.27,-6.2 -3.03,-4.26 -2.02,-1.29 0,0"
             style="fill:#88898b;fill-opacity:1;fill-rule:nonzero;stroke:none"
             id="path52" /></g><g
           id="g54"
           transform="translate(868.2598,393.8301)"><path
             d="M 0,0 C 2.29,1.35 5.43,-0.31 5.55,-2.97 6.25,-5.99 2.47,-8.73 -0.11,-6.9 -2.6,-5.45 -2.45,-1.41 0,0"
             style="fill:#88898b;fill-opacity:1;fill-rule:nonzero;stroke:none"
             id="path56" /></g><g
           id="g58"
           transform="translate(128.9099,389.0098)"><path
             d="M 0,0 C 1.97,0.54 3.94,1.07 5.91,1.59 5.89,-1.69 5.88,-4.99 5.88,-8.28 c 2.82,0.01 5.64,0.03 8.47,0.04 0.01,-1.63 0.02,-3.26 0.03,-4.9 -2.83,0.01 -5.67,0.01 -8.5,0.01 0.25,-7.24 -0.54,-14.55 0.42,-21.75 0.51,-3.68 4.75,-3.34 7.5,-3.06 0.06,-1.63 0.12,-3.26 0.17,-4.91 -3.47,-0.27 -7.49,-1.25 -10.52,1.05 -2.71,2 -3.33,5.58 -3.43,8.73 -0.16,6.65 0.02,13.29 -0.04,19.94 -1.68,0.01 -3.37,0.01 -5.05,0.01 -0.01,1.62 -0.02,3.23 -0.02,4.84 1.68,0.01 3.38,0.01 5.07,0 0.01,2.77 0.01,5.52 0.02,8.28"
             style="fill:#88898b;fill-opacity:1;fill-rule:nonzero;stroke:none"
             id="path60" /></g><g
           id="g62"
           transform="translate(884.1699,389.0298)"><path
             d="M 0,0 C 1.97,0.53 3.94,1.07 5.92,1.59 5.91,-1.71 5.91,-5 5.91,-8.31 c 2.81,0.02 5.62,0.03 8.44,0.04 -0.05,-1.63 -0.08,-3.27 -0.1,-4.91 -2.79,0.01 -5.56,0.03 -8.33,0.05 0.08,-6.64 -0.17,-13.29 0.07,-19.93 0,-1.97 0.79,-4.35 2.93,-4.93 1.67,-0.14 3.35,0.02 5.05,0.06 -0.09,-1.59 -0.09,-3.21 -0.33,-4.81 -4.91,-1.64 -11.95,-0.5 -13.13,5.41 -1.16,7.99 -0.24,16.13 -0.53,24.18 -1.7,0.01 -3.38,0 -5.05,-0.01 -0.03,1.63 -0.03,3.25 -0.03,4.86 1.68,0.01 3.36,0.02 5.07,0.02 0.01,2.76 0.01,5.52 0.03,8.28"
             style="fill:#88898b;fill-opacity:1;fill-rule:nonzero;stroke:none"
             id="path64" /></g><g
           id="g66"
           transform="translate(828.1499,379.9102)"><path
             d="m 0,0 c 1.87,1.46 4.34,1.48 6.59,1.84 0.05,-2.03 0.09,-4.06 0.15,-6.1 -4.15,0.19 -8.45,-1.81 -9.51,-6.13 -1.63,-7.59 -0.43,-15.46 -0.78,-23.17 -2,0.04 -3.99,0.08 -5.97,0.1 0.02,11.46 0.16,22.91 -0.15,34.36 1.74,-0.02 3.51,-0.06 5.28,-0.1 0,-2.19 -0.03,-4.38 -0.04,-6.58 1.32,2.02 2.44,4.31 4.43,5.78"
             style="fill:#88898b;fill-opacity:1;fill-rule:nonzero;stroke:none"
             id="path68" /></g><g
           id="g70"
           transform="translate(78.24,380.7402)"><path
             d="M 0,0 C 2,0.02 3.99,0.02 5.99,0.03 5.97,-11.45 6.05,-22.93 5.94,-34.41 3.96,-34.37 1.98,-34.35 0,-34.32 0.03,-22.88 0.04,-11.44 0,0"
             style="fill:#88898b;fill-opacity:1;fill-rule:nonzero;stroke:none"
             id="path72" /></g><g
           id="g74"
           transform="translate(101.2,374.8198)"><path
             d="m 0,0 c -2.3,-1.99 -2.95,-5.09 -3.9,-7.84 5.89,0.15 11.78,0.03 17.67,0.07 -0.57,2.31 -0.82,4.79 -2.16,6.8 C 9.1,2.76 3.14,3.09 0,0 m -6.6,-0.4 c 3.87,7.25 14.72,9.64 20.93,4.06 4.44,-4 5.09,-10.34 5.07,-15.97 -7.8,-0.11 -15.61,0 -23.41,-0.07 0.73,-3.49 1.31,-7.54 4.5,-9.72 4.65,-3.44 10.81,-2.09 15.88,-0.46 0.39,-1.54 0.78,-3.08 1.17,-4.64 -6.89,-2.32 -15.55,-3.46 -21.52,1.6 -6.87,6.24 -6.93,17.5 -2.62,25.2"
             style="fill:#88898b;fill-opacity:1;fill-rule:nonzero;stroke:none"
             id="path76" /></g><g
           id="g78"
           transform="translate(149.6399,380.8301)"><path
             d="m 0,0 c 1.78,-0.03 3.56,-0.08 5.35,-0.13 0.05,-1.78 0.08,-3.56 0.11,-5.37 2.5,3.1 5.7,6.09 9.94,6.18 6.19,0.76 11.65,-4.55 12.17,-10.53 0.78,-8.17 0.12,-16.4 0.35,-24.6 -2.02,0.01 -4.03,0.02 -6.04,0.01 -0.04,6.54 0.06,13.08 0,19.62 -0.04,3.07 -0.47,6.56 -2.95,8.67 -2.94,2.59 -7.75,1.77 -10.2,-1.1 -2.28,-2.25 -2.55,-5.61 -2.56,-8.64 0,-6.17 0.04,-12.34 0.07,-18.51 C 4.21,-34.42 2.18,-34.43 0.16,-34.45 0.11,-22.96 0.27,-11.48 0,0"
             style="fill:#88898b;fill-opacity:1;fill-rule:nonzero;stroke:none"
             id="path80" /></g><g
           id="g82"
           transform="translate(192.79,361.29)"><path
             d="m 0,0 c -3.38,-2.5 -3.15,-8.72 0.85,-10.47 4.02,-1.61 8.93,1.13 10.07,5.21 0.58,2.62 0.41,5.32 0.46,7.97 C 7.52,2.39 3.18,2.59 0,0 m -5.7,17.37 c 4.82,2.88 11.07,3.89 16.35,1.73 4.38,-1.85 6.31,-6.81 6.38,-11.3 0.19,-7.56 -0.28,-15.15 0.54,-22.69 -1.79,-0.01 -3.57,-0.02 -5.36,-0.04 -0.13,1.42 -0.27,2.82 -0.39,4.22 -3.64,-4.15 -9.72,-6.38 -14.95,-3.91 -6.4,3.1 -6.87,12.91 -1.62,17.29 4.43,3.89 10.62,4.2 16.21,4.48 -0.58,2.64 -0.76,5.99 -3.49,7.39 -4.2,2.13 -8.96,0.22 -12.94,-1.48 -0.27,1.44 -0.6,2.86 -0.73,4.31"
             style="fill:#88898b;fill-opacity:1;fill-rule:nonzero;stroke:none"
             id="path84" /></g><g
           id="g86"
           transform="translate(224.6299,375.2202)"><path
             d="m 0,0 c 2.37,3.45 5.88,6.64 10.38,6.33 4.27,0.22 7.36,-3.08 9.32,-6.48 2.51,3.49 6.06,6.81 10.7,6.48 6.03,0.15 10.2,-5.66 10.56,-11.23 0.53,-7.95 0.03,-15.93 0.25,-23.9 -1.98,-0.01 -3.96,-0.01 -5.94,-0.02 -0.04,6.54 0.06,13.08 0,19.62 -0.06,3.11 -0.42,6.68 -2.9,8.87 -2.57,2.29 -6.78,1.65 -8.95,-0.88 -2.37,-2.35 -2.5,-5.86 -2.5,-8.99 0.03,-6.22 0.05,-12.45 0.03,-18.67 -1.97,0.04 -3.95,0.08 -5.92,0.1 C 15,-21.55 15.2,-14.33 15,-7.12 14.97,-3.67 13.2,0.43 9.42,1.01 4.78,1.72 1,-2.84 0.82,-7.17 0.48,-14.38 0.81,-21.61 0.7,-28.83 c -1.97,0.01 -3.94,0.01 -5.91,0 -0.06,11.44 0.23,22.9 -0.22,34.34 1.76,0.02 3.53,0.03 5.29,0.04 C -0.09,3.71 -0.04,1.85 0,0"
             style="fill:#88898b;fill-opacity:1;fill-rule:nonzero;stroke:none"
             id="path88" /></g><g
           id="g90"
           transform="translate(282.2998,374.6299)"><path
             d="M 0,0 C -2.12,-2 -2.81,-4.92 -3.73,-7.57 2.14,-7.65 8,-7.49 13.86,-7.67 13.36,-5.26 13.18,-2.62 11.65,-0.6 9.01,3.04 3.03,3.23 0,0 M -6.54,-0.41 C -2.76,6.88 8,9.47 14.32,4 c 4.61,-3.97 5.33,-10.46 5.15,-16.17 -7.76,-0.01 -15.51,0.03 -23.27,-0.02 0.63,-3.67 1.46,-7.87 4.89,-10 4.67,-3.14 10.56,-1.66 15.56,-0.24 0.36,-1.48 0.72,-2.97 1.09,-4.46 -6.5,-2.39 -14.54,-3.45 -20.55,0.71 -7.77,5.85 -8.12,17.76 -3.73,25.77"
             style="fill:#88898b;fill-opacity:1;fill-rule:nonzero;stroke:none"
             id="path92" /></g><g
           id="g94"
           transform="translate(310.9502,378.9702)"><path
             d="m 0,0 c 4.43,3.59 10.95,3.11 15.77,0.56 -0.29,-1.58 -0.81,-3.12 -1.24,-4.69 -3.17,1.27 -7,2.9 -10.25,0.97 -2.47,-1.38 -2.81,-5.37 -0.41,-7 3.16,-2.34 7.26,-3.08 10.21,-5.75 4.55,-4.05 3.72,-12.47 -1.61,-15.5 -5.21,-3.06 -11.73,-1.99 -17.05,0.21 0.51,1.67 1.04,3.32 1.56,4.97 3.6,-1.63 7.94,-3.56 11.78,-1.49 3.04,1.49 3.3,6.18 0.6,8.12 -3.55,2.51 -8.35,3.22 -11.12,6.81 C -4.77,-8.98 -3.78,-2.93 0,0"
             style="fill:#88898b;fill-opacity:1;fill-rule:nonzero;stroke:none"
             id="path96" /></g><g
           id="g98"
           transform="translate(342.3901,374.6099)"><path
             d="m 0,0 c -2.12,-1.96 -2.74,-4.91 -3.64,-7.54 5.82,-0.21 11.65,-0.14 17.48,-0.12 -0.49,2.42 -0.57,5.1 -2.18,7.09 C 9.03,3.1 3.04,3.22 0,0 m -6.61,-0.57 c 3.69,7.38 14.46,10.08 20.89,4.68 4.66,-3.95 5.34,-10.47 5.3,-16.19 -7.73,-0.14 -15.45,-0.04 -23.18,-0.06 0.43,-3.46 1.06,-7.32 4.08,-9.55 4.63,-3.72 10.99,-2.26 16.19,-0.71 0.36,-1.5 0.72,-3 1.1,-4.52 -6.55,-2.3 -14.58,-3.42 -20.6,0.78 -7.68,5.82 -8.01,17.59 -3.78,25.57"
             style="fill:#88898b;fill-opacity:1;fill-rule:nonzero;stroke:none"
             id="path100" /></g><g
           id="g102"
           transform="translate(468.9702,374.9399)"><path
             d="M 0,0 C -2.31,-2 -3.03,-5.1 -4.06,-7.84 1.85,-7.86 7.75,-7.92 13.66,-8.02 13.01,-5.36 12.84,-2.31 10.79,-0.27 8.05,2.7 2.92,2.67 0,0 m -6.95,-0.91 c 3.66,7.34 14.34,10.05 20.78,4.78 4.77,-3.92 5.52,-10.54 5.47,-16.32 -7.79,-0.06 -15.58,0 -23.37,-0.03 0.59,-3.62 1.35,-7.73 4.66,-9.9 4.67,-3.25 10.69,-1.88 15.72,-0.33 0.37,-1.52 0.74,-3.04 1.12,-4.59 -7.02,-2.4 -15.99,-3.52 -21.91,1.92 -6.37,6.25 -6.44,16.92 -2.47,24.47"
             style="fill:#88898b;fill-opacity:1;fill-rule:nonzero;stroke:none"
             id="path104" /></g><g
           id="g106"
           transform="translate(504.9399,380.0298)"><path
             d="m 0,0 c 1.86,1.33 4.26,1.34 6.43,1.76 0.03,-2.04 0.05,-4.08 0.08,-6.13 -3.65,0.06 -7.64,-1.28 -9.01,-4.99 -2.73,-7.74 -0.1,-16.26 -1.6,-24.15 -1.86,-0.18 -3.72,-0.17 -5.57,-0.21 -0.08,11.46 0.24,22.93 -0.28,34.38 1.78,0.04 3.56,0.07 5.35,0.09 0.02,-2.24 0.04,-4.5 0.05,-6.75 1.31,2.13 2.42,4.54 4.55,6"
             style="fill:#88898b;fill-opacity:1;fill-rule:nonzero;stroke:none"
             id="path108" /></g><g
           id="g110"
           transform="translate(517.2402,380.73)"><path
             d="m 0,0 c 1.77,0.02 3.54,0.03 5.33,0.03 0.02,-1.81 0.03,-3.62 0.05,-5.45 2.5,3.29 5.87,6.53 10.35,6.24 4.29,0.28 7.46,-2.98 9.38,-6.44 2.56,3.39 6.05,6.73 10.65,6.44 5.84,0.22 10.09,-5.25 10.57,-10.67 0.65,-8.13 0.07,-16.31 0.31,-24.47 -1.99,0.01 -3.98,0.01 -5.96,0.01 -0.09,7.22 0.17,14.45 -0.09,21.66 -0.11,3.22 -1.52,6.96 -4.88,7.97 -4.42,1.39 -8.85,-2.69 -9.1,-7.03 -0.45,-7.54 -0.03,-15.11 -0.15,-22.67 -2,0.05 -4,0.09 -5.99,0.12 -0.03,7.21 0.18,14.43 -0.04,21.64 0,3.48 -1.81,7.64 -5.66,8.14 -4.62,0.62 -8.33,-3.92 -8.5,-8.23 -0.28,-7.2 0.01,-14.42 -0.08,-21.63 -1.98,0.01 -3.95,0 -5.92,-0.01 C 0.19,-22.9 0.52,-11.44 0,0"
             style="fill:#88898b;fill-opacity:1;fill-rule:nonzero;stroke:none"
             id="path112" /></g><g
           id="g114"
           transform="translate(576.9302,357.0298)"><path
             d="m 0,0 c -1.06,-4.97 4.87,-8.45 8.97,-5.89 5.02,2.21 4.91,8.22 4.72,12.84 C 8.62,6.86 0.82,6.41 0,0 m -3.87,21.49 c 5,2.72 11.13,4.17 16.6,1.97 4.12,-1.69 6.35,-6.18 6.52,-10.46 0.38,-7.87 -0.3,-15.78 0.61,-23.63 -1.83,0 -3.65,-0.01 -5.47,-0.02 -0.08,1.41 -0.15,2.82 -0.21,4.21 -3.64,-4.03 -9.47,-6.34 -14.71,-4.06 -6.3,2.73 -7.3,11.98 -2.68,16.67 4.38,4.62 11.17,4.93 17.11,5.3 -0.8,2.67 -1.02,6.14 -3.9,7.47 -4.06,1.84 -8.58,0.19 -12.37,-1.55 -0.51,1.37 -1.01,2.74 -1.5,4.1"
             style="fill:#88898b;fill-opacity:1;fill-rule:nonzero;stroke:none"
             id="path116" /></g><g
           id="g118"
           transform="translate(605.5,380.8198)"><path
             d="m 0,0 c 1.78,-0.03 3.57,-0.07 5.36,-0.11 0.02,-1.77 0.03,-3.53 0.04,-5.31 2.06,2.21 4.15,4.72 7.19,5.56 4.31,1.49 9.54,0.15 12.34,-3.53 2.59,-3.21 2.95,-7.51 2.96,-11.49 -0.03,-6.54 0,-13.08 -0.08,-19.62 -1.99,0.04 -3.96,0.07 -5.94,0.09 -0.07,7.18 0.24,14.37 -0.1,21.54 -0.14,3.34 -1.77,7.15 -5.29,8.04 -4.99,1.45 -10.01,-3.08 -10.16,-8.02 -0.34,-7.19 0,-14.41 -0.11,-21.61 -2.03,0.04 -4.05,0.07 -6.07,0.1 C 0.16,-22.91 0.3,-11.45 0,0"
             style="fill:#88898b;fill-opacity:1;fill-rule:nonzero;stroke:none"
             id="path120" /></g><g
           id="g122"
           transform="translate(700.3398,380.7402)"><path
             d="m 0,0 c 1.8,0.02 3.6,0.02 5.42,0.02 0.02,-1.8 0.03,-3.6 0.05,-5.42 2.86,3.74 7.17,6.87 12.13,6.15 5.82,-0.41 9.84,-5.92 10.2,-11.44 0.51,-7.86 0.04,-15.76 0.22,-23.63 -2.03,-0.01 -4.06,-0.03 -6.07,-0.05 -0.02,6.23 0.04,12.46 0.03,18.69 -0.12,3.27 -0.2,7.05 -2.76,9.45 C 16.36,-3.51 11.48,-4.16 8.95,-7.02 6.84,-9 6.24,-11.98 6.27,-14.77 6.23,-21.3 6.32,-27.83 6.3,-34.36 4.28,-34.35 2.28,-34.34 0.27,-34.34 0.2,-22.89 0.52,-11.44 0,0"
             style="fill:#88898b;fill-opacity:1;fill-rule:nonzero;stroke:none"
             id="path124" /></g><g
           id="g126"
           transform="translate(737.8101,380.77)"><path
             d="M 0,0 C 1.99,-0.01 3.99,-0.02 5.99,-0.04 5.96,-11.47 5.92,-22.9 6.01,-34.33 4,-34.35 1.99,-34.37 -0.01,-34.4 0.01,-22.93 -0.02,-11.47 0,0"
             style="fill:#88898b;fill-opacity:1;fill-rule:nonzero;stroke:none"
             id="path128" /></g><g
           id="g130"
           transform="translate(749.3599,380.6802)"><path
             d="m 0,0 c 2.14,0.03 4.27,0.07 6.42,0.13 3.1,-9.3 6.4,-18.54 9.06,-27.98 3.01,9.32 6.07,18.62 9.12,27.93 2.11,0 4.24,-0.01 6.37,-0.03 -4.34,-11.42 -8.55,-22.9 -12.82,-34.35 -1.92,0.01 -3.84,0.02 -5.76,0.03 C 8.27,-22.85 4.23,-11.39 0,0"
             style="fill:#88898b;fill-opacity:1;fill-rule:nonzero;stroke:none"
             id="path132" /></g><g
           id="g134"
           transform="translate(792.1899,374.7598)"><path
             d="M 0,0 C -2.26,-1.99 -2.89,-5.06 -3.82,-7.79 2.06,-7.84 7.95,-7.9 13.84,-7.68 13.27,-5.37 13,-2.88 11.64,-0.87 9.09,2.85 3.13,3.13 0,0 m -6.54,-0.36 c 3.88,7.27 14.75,9.68 20.97,4.05 4.41,-4.01 5.04,-10.34 5.04,-15.95 -7.81,-0.09 -15.62,0 -23.42,-0.05 0.72,-3.49 1.31,-7.53 4.5,-9.72 4.69,-3.5 10.89,-2.02 16.04,-0.49 0.28,-1.56 0.61,-3.14 0.91,-4.71 -6.7,-2.08 -14.9,-3.33 -20.86,1.25 -7.42,6.04 -7.63,17.76 -3.18,25.62"
             style="fill:#88898b;fill-opacity:1;fill-rule:nonzero;stroke:none"
             id="path136" /></g><g
           id="g138"
           transform="translate(839.0801,370.9302)"><path
             d="M 0,0 C -0.43,4.81 3.29,9.27 7.93,10.22 11.88,11.31 15.9,10.09 19.56,8.56 19,7.05 18.47,5.52 17.94,4 15,5.08 11.74,6.51 8.62,5.31 5.8,4.34 4.61,0.24 6.99,-1.82 c 3.45,-2.77 8.33,-3.37 11.34,-6.8 3.89,-4.4 2.56,-12.27 -2.72,-14.99 -5.21,-2.7 -11.51,-1.79 -16.68,0.52 0.51,1.63 1.02,3.25 1.55,4.86 3.33,-1.4 7.02,-3.15 10.7,-1.94 2.71,0.8 4.47,4.05 3.17,6.68 -1.51,2.98 -5.11,3.68 -7.8,5.17 C 3.2,-6.86 0.06,-3.87 0,0"
             style="fill:#88898b;fill-opacity:1;fill-rule:nonzero;stroke:none"
             id="path140" /></g><g
           id="g142"
           transform="translate(867.1499,380.7402)"><path
             d="M 0,0 C 2.01,0.01 4.02,0.02 6.05,0.01 6.07,-11.44 6.06,-22.9 6.06,-34.36 4.02,-34.34 2,-34.33 -0.02,-34.32 0.05,-22.88 0.01,-11.44 0,0"
             style="fill:#88898b;fill-opacity:1;fill-rule:nonzero;stroke:none"
             id="path144" /></g><g
           id="g146"
           transform="translate(901.25,380.7598)"><path
             d="m 0,0 c 2.19,0 4.39,-0.01 6.59,-0.03 3.17,-8.98 6.43,-17.92 9.27,-27.02 2.57,9.1 5.61,18.05 8.46,27.05 2.13,0 4.27,-0.02 6.42,-0.04 -4.7,-12.22 -8.54,-24.79 -13.82,-36.78 -2.54,-6.05 -7.16,-11.23 -13.39,-13.58 -0.58,1.82 -1.14,3.63 -1.69,5.44 4.71,2.37 9.04,6.16 10.51,11.38 -0.23,2.45 -1.37,4.68 -2.2,6.95 C 6.72,-17.77 3.38,-8.87 0,0"
             style="fill:#88898b;fill-opacity:1;fill-rule:nonzero;stroke:none"
             id="path148" /></g><g
           id="g150"
           transform="translate(380.3501,368.0498)"><path
             d="m 0,0 c 5.53,0.05 11.06,0.04 16.58,0 0.04,-1.56 0.09,-3.14 0.13,-4.72 -5.59,-0.02 -11.17,0 -16.75,-0.03 0.01,1.59 0.02,3.18 0.04,4.75"
             style="fill:#88898b;fill-opacity:1;fill-rule:nonzero;stroke:none"
             id="path152" /></g></g></g></g></svg>
